<svg xmlns="http://www.w3.org/2000/svg" viewBox="0 0 265.69 129.41"><title>Recurso 2</title><g style="isolation:isolate"><g id="Capa_2" data-name="Capa 2"><g id="OBJECTS"><g style="mix-blend-mode:hard-light"><path d="M149,96.12h-.07a.26.26,0,0,1-.16-.15L109.57.87a.26.26,0,0,1,.14-.33.25.25,0,0,1,.32.14l39.06,94.79L265.29,6.58a.24.24,0,0,1,.35,0,.25.25,0,0,1-.05.35L149.13,96.07A.27.27,0,0,1,149,96.12Z" fill="#fff"/><path d="M94.19,51a108.72,108.72,0,0,1-17.61-1.48.25.25,0,0,1-.2-.29.24.24,0,0,1,.29-.2c.4.07,40.13,7.33,48.12-10.93a.24.24,0,0,1,.33-.13.25.25,0,0,1,.12.33C120.7,48.64,106.19,51,94.19,51Z" fill="#fff"/><path d="M174.63,73.73c-21.78,0-46.66-28.56-46.92-28.87a.25.25,0,0,1,0-.35.25.25,0,0,1,.36,0c.28.32,28.19,32.36,50.52,28.34a.26.26,0,0,1,.29.2.25.25,0,0,1-.2.29A23.07,23.07,0,0,1,174.63,73.73Z" fill="#fff"/><path d="M201.91,107.44l-.09,0c-5.64-2.21-10-9.66-12.91-22.13a122.3,122.3,0,0,1-2.71-18.07.26.26,0,0,1,.24-.26.24.24,0,0,1,.26.23c0,.35,2.19,34.63,15.3,39.76a.25.25,0,0,1,.14.33A.25.25,0,0,1,201.91,107.44Z" fill="#fff"/><path d="M120.49,77.76a.26.26,0,0,1-.25-.25.25.25,0,0,1,.25-.25c.14,0,14.34-.32,16-11a.26.26,0,0,1,.28-.21.26.26,0,0,1,.21.29c-1.71,11.12-16.33,11.44-16.47,11.44Z" fill="#fff"/><path d="M178.41,102.36a.19.19,0,0,1-.1,0c-9.1-4.22-9.2-21.18-9.2-21.9a.25.25,0,0,1,.5,0c0,.18.1,17.36,8.91,21.45a.25.25,0,0,1,.12.33A.26.26,0,0,1,178.41,102.36Z" fill="#fff"/><path d="M194.57,100.19a.25.25,0,0,1-.24-.18C191.66,90.68,199,75,216,53.53A366.46,366.46,0,0,1,242.47,24a.25.25,0,0,1,.35,0,.24.24,0,0,1,0,.35c-.55.53-54.27,53.65-48,75.54a.26.26,0,0,1-.18.31Z" fill="#fff"/><path d="M92.71,59.66h0a.25.25,0,0,1-.22-.28c.61-6.17-.87-8.48-.89-8.5a.26.26,0,0,1,.07-.35.27.27,0,0,1,.35.07c.06.1,1.59,2.45,1,8.83A.25.25,0,0,1,92.71,59.66Z" fill="#fff"/><path d="M146.21,61.6h-.52a.25.25,0,0,1-.24-.26.23.23,0,0,1,.25-.24c.12,0,12.34.32,31.24-4.8,17.44-4.73,44.3-15.2,73.21-38.2a.26.26,0,0,1,.35,0,.26.26,0,0,1,0,.36c-29,23-55.92,33.54-73.41,38.28C160.28,61.33,148.74,61.6,146.21,61.6Z" fill="#fff"/><path d="M121.35,43.51h-.09a.26.26,0,0,1-.15-.33c2.49-6.62-7.2-31.73-7.3-32a.26.26,0,0,1,.15-.33.25.25,0,0,1,.32.15c.4,1,9.85,25.54,7.3,32.34A.25.25,0,0,1,121.35,43.51Z" fill="#fff"/><path d="M102.39,50.56h0C83.85,49.3,53.56,34.76,53.26,34.62a.26.26,0,0,1-.12-.34.25.25,0,0,1,.34-.11c.3.14,30.5,14.63,48.92,15.89a.26.26,0,0,1,.24.27A.25.25,0,0,1,102.39,50.56Z" fill="#fff"/><path d="M203.62,107.79a.27.27,0,0,1-.17-.06c-11.46-9.77-3.77-30-3.69-30.19a.24.24,0,0,1,.32-.14.24.24,0,0,1,.15.32c-.08.2-7.65,20.09,3.55,29.63a.25.25,0,0,1,0,.35A.25.25,0,0,1,203.62,107.79Z" fill="#fff"/><path d="M190.74,90.4a.25.25,0,0,1,0-.5s2.05-.52,6.68-7.69a.25.25,0,0,1,.35-.07.24.24,0,0,1,.07.34c-4.87,7.54-6.94,7.91-7,7.92Z" fill="#fff"/><path d="M235.5,114.46h-.08c-10.07-3.59-17.29-14.36-20.89-31.16a117.46,117.46,0,0,1-2.42-24.5.25.25,0,0,1,.26-.24.24.24,0,0,1,.24.26c0,.46-1,46.62,23,55.17a.24.24,0,0,1,.15.32A.25.25,0,0,1,235.5,114.46Z" fill="#fff"/><path d="M109.43,70.69a.23.23,0,0,1-.19-.09.24.24,0,0,1,0-.35A50.69,50.69,0,0,0,118,61c3.83-5.22,8.12-13.42,6.82-22.76a.25.25,0,0,1,.21-.28.25.25,0,0,1,.29.21c2.53,18.19-15.58,32.31-15.76,32.45A.24.24,0,0,1,109.43,70.69Z" fill="#fff"/><path d="M155.73,97.58a.24.24,0,0,1-.19-.08.25.25,0,0,1,0-.35c.1-.09,2.35-2.16-.2-6.21-2.83-4.49-9-2.16-9.1-2.13s-2.54,1.38-2.54,3.59a.25.25,0,0,1-.5,0c0-2.51,2.72-4,2.84-4.05s6.68-2.51,9.72,2.32c2.79,4.43.14,6.83.11,6.85A.23.23,0,0,1,155.73,97.58Z" fill="#fff"/><path d="M170.64,58.45h0C143.42,54.92,121.72,30.2,121.5,30a.24.24,0,0,1,0-.35.25.25,0,0,1,.35,0c.21.25,21.8,24.83,48.79,28.33a.25.25,0,0,1,.22.28A.25.25,0,0,1,170.64,58.45Z" fill="#fff"/><path d="M265.44,121h0a46.38,46.38,0,0,1-8.89-1.9l-107.6-23a.32.32,0,0,1-.09,0L.12.46A.25.25,0,0,1,0,.11.25.25,0,0,1,.38,0l148.7,95.59,102.14,21.79c-11.41-3.74-24.52-9.12-25.34-9.46a.23.23,0,0,1-.13-.32.25.25,0,0,1,.32-.14c.24.1,18.35,7.54,30.71,11.1l8.71,1.86a.26.26,0,0,1,.2.28A.27.27,0,0,1,265.44,121Z" fill="#fff"/><path d="M80.72,34.15q-1.75,0-3.6-.06A171.35,171.35,0,0,1,46.05,30a.25.25,0,0,1-.18-.3.25.25,0,0,1,.3-.19c.59.15,59,14,70.7-10.26a.25.25,0,0,1,.45.21C112.68,29.1,100.06,34.15,80.72,34.15Z" fill="#fff"/><path d="M202.85,36.74c-15,0-30.68-3.06-43.51-6.49a297.85,297.85,0,0,1-44.17-15.74.26.26,0,0,1-.12-.33.25.25,0,0,1,.34-.12,296.38,296.38,0,0,0,44.09,15.71c22.41,6,53.52,10.86,74.46.15a.24.24,0,0,1,.34.1.26.26,0,0,1-.11.34C225.11,35,214.16,36.74,202.85,36.74Z" fill="#fff"/><path d="M257.65,119.47a.27.27,0,0,1-.17-.06c-26.52-24-28-80.7-28-81.27a.25.25,0,0,1,.24-.25h0a.25.25,0,0,1,.25.24c0,.57,1.5,57.06,27.87,80.91a.25.25,0,0,1,0,.35A.24.24,0,0,1,257.65,119.47Z" fill="#fff"/><path d="M113.72,24.11a.27.27,0,0,1-.24-.17,7.29,7.29,0,0,1,2.06-7.4.24.24,0,0,1,.35,0,.25.25,0,0,1,0,.35A6.74,6.74,0,0,0,114,23.78a.26.26,0,0,1-.16.32Z" fill="#fff"/><path d="M78.67,29.27c-18.47,0-36.57-2-36.89-2a.26.26,0,0,1-.22-.28.24.24,0,0,1,.28-.22c.56.06,56.73,6.28,72-3.28a.25.25,0,0,1,.26.42C107.37,28.08,92.91,29.27,78.67,29.27Z" fill="#fff"/><path d="M95,28.64a.25.25,0,0,1-.23-.16.25.25,0,0,1,.14-.33C104,24.7,99.64,3,99.6,2.8a.24.24,0,0,1,.19-.29.25.25,0,0,1,.3.19,63.91,63.91,0,0,1,1.09,11.53c-.06,8-2.1,12.87-6.07,14.39Z" fill="#fff"/><path d="M196.4,36.8h0c-6-.33-17.68-6.48-34.59-18.26C149.23,9.78,138.29,1,138.18.91a.24.24,0,0,1,0-.35.26.26,0,0,1,.35,0c.43.35,43.69,35,57.92,35.78a.25.25,0,0,1,0,.5Z" fill="#fff"/><path d="M261,42.57c-11.81,0-24.53-11.26-24.67-11.39a.23.23,0,0,1,0-.35.25.25,0,0,1,.35,0c.16.14,16.2,14.34,28.76,10.65a.26.26,0,0,1,.31.17.25.25,0,0,1-.17.31A16,16,0,0,1,261,42.57Z" fill="#fff"/><path d="M256.27,118.06a.26.26,0,0,1-.21-.11c-13-19.45,1.24-75.38,1.38-75.95a.26.26,0,0,1,.31-.18.27.27,0,0,1,.18.31,264.52,264.52,0,0,0-5.6,30.5c-2.59,21.51-1.16,37.08,4.14,45a.24.24,0,0,1-.06.34A.3.3,0,0,1,256.27,118.06Z" fill="#fff"/><path d="M237.91,85.83a.26.26,0,0,1-.25-.19c-4.45-16.17-.86-53.56-.82-53.94a.23.23,0,0,1,.27-.22.25.25,0,0,1,.23.27c0,.37-3.62,37.67.81,53.76a.27.27,0,0,1-.18.31Z" fill="#fff"/><path d="M105.37,76.68h0a.24.24,0,0,1-.24-.21,2.74,2.74,0,0,1,0-1c-.25-4.39-7.46-12.21-7.54-12.29a.25.25,0,0,1,.37-.34c.3.32,6.49,7,7.53,11.67a3.14,3.14,0,0,1,.51-.69c1.22-1.3,3.47-1.83,6.68-1.57a.25.25,0,1,1,0,.5c-3-.24-5.18.24-6.28,1.41a2.88,2.88,0,0,0-.73,1.37,3.3,3.3,0,0,1-.06.9A.25.25,0,0,1,105.37,76.68Z" fill="#fff"/><path d="M105.8,101.48a.24.24,0,0,1-.25-.24l-.43-24.8a.24.24,0,0,1,.24-.26h0a.26.26,0,0,1,.25.25l.43,24.8a.25.25,0,0,1-.25.25Z" fill="#fff"/><path d="M195.82,112.74a.24.24,0,0,1-.24-.2c-.85-4.31-8.81-8.3-8.89-8.34a.26.26,0,0,1-.11-.34.25.25,0,0,1,.33-.11c.32.16,7.43,3.72,9,8,.74-1.35,3.3-4,12-3.55a.26.26,0,0,1,.23.27.25.25,0,0,1-.26.23c-10.8-.63-11.71,3.83-11.72,3.88S195.94,112.71,195.82,112.74Z" fill="#fff"/><path d="M195.82,129.41a.25.25,0,0,1-.25-.25V112.49a.25.25,0,0,1,.5,0v16.67A.25.25,0,0,1,195.82,129.41Z" fill="#fff"/><path d="M129.34,86.07h-.05a.26.26,0,0,1-.2-.25c0-1.78-2.77-4.22-2.8-4.24a.25.25,0,0,1,0-.35.24.24,0,0,1,.35,0c.11.1,2.43,2.13,2.89,4a3.1,3.1,0,0,1,1.71-.83.24.24,0,0,1,.29.2.25.25,0,0,1-.21.29,2.29,2.29,0,0,0-1.73,1.07A.26.26,0,0,1,129.34,86.07Z" fill="#fff"/><path d="M129.49,92.39a.25.25,0,0,1-.25-.25l-.1-6.39a.25.25,0,0,1,.25-.25h0a.25.25,0,0,1,.25.24l.1,6.39a.26.26,0,0,1-.25.26Z" fill="#fff"/><path d="M167.49,103.91h0a.25.25,0,0,1-.25-.23,3,3,0,0,1,0-.34c-.17-1.65-3.16-3.57-4.37-4.21a.24.24,0,0,1-.1-.34.25.25,0,0,1,.34-.1c.16.09,3.3,1.76,4.32,3.66a3.25,3.25,0,0,1,2.77-2.19.26.26,0,0,1,.29.21.25.25,0,0,1-.21.29,2.75,2.75,0,0,0-2.54,2.63,2.67,2.67,0,0,1,0,.4A.25.25,0,0,1,167.49,103.91Z" fill="#fff"/><path d="M167.49,113.41a.25.25,0,0,1-.25-.25v-9.5a.25.25,0,1,1,.5,0v9.5A.25.25,0,0,1,167.49,113.41Z" fill="#fff"/><path d="M220.47,114.75a.25.25,0,0,1-.24-.19,2.16,2.16,0,0,1,0-.59c-.44-1.9-4.07-3.34-4.11-3.36a.25.25,0,0,1-.15-.32.27.27,0,0,1,.33-.15c.15.07,3.1,1.24,4.12,3a3.35,3.35,0,0,1,.21-.36,3.5,3.5,0,0,1,2.61-1.28.24.24,0,0,1,.27.22.25.25,0,0,1-.22.28,3,3,0,0,0-2.25,1.06,1.78,1.78,0,0,0-.3.88,2.24,2.24,0,0,1,0,.58.25.25,0,0,1-.23.22Z" fill="#fff"/><path d="M220.47,122a.25.25,0,0,1-.25-.25V114.5a.25.25,0,0,1,.5,0v7.25A.25.25,0,0,1,220.47,122Z" fill="#fff"/></g></g></g></g></svg>