<svg xmlns="http://www.w3.org/2000/svg" viewBox="0 0 272.99 174.46"><title>Recurso 1</title><g style="isolation:isolate"><g id="Capa_2" data-name="Capa 2"><g id="OBJECTS"><g style="mix-blend-mode:hard-light"><path d="M105.14,91.42h0L4,80a.26.26,0,0,1-.22-.28.25.25,0,0,1,.28-.22l101,11.42L272.62,0a.26.26,0,0,1,.34.1.25.25,0,0,1-.1.34L105.26,91.39A.27.27,0,0,1,105.14,91.42Z" fill="#fff"/><path d="M105.14,91.42a.26.26,0,0,1-.2-.1L34.47.4a.25.25,0,0,1,.05-.35.25.25,0,0,1,.35.05l70.24,90.62L158.25.12a.26.26,0,0,1,.34-.09.26.26,0,0,1,.09.35L105.36,91.29a.3.3,0,0,1-.2.13Z" fill="#fff"/><path d="M.25,174.46a.27.27,0,0,1-.2-.09.26.26,0,0,1,0-.35L105,91a.24.24,0,0,1,.35,0,.26.26,0,0,1,0,.35L.41,174.41A.33.33,0,0,1,.25,174.46Z" fill="#fff"/><path d="M129.76,78l-.09,0c-7.59-3-7.46-14-7.37-16C94.55,67.46,62.64,33.56,52.12,22.38a40.66,40.66,0,0,0-3-3,.25.25,0,0,1-.08-.34.26.26,0,0,1,.35-.08A35.43,35.43,0,0,1,52.49,22C63,33.21,95,67.18,122.52,61.38a.24.24,0,0,1,.3.26c0,.13-1,12.72,7,15.86a.24.24,0,0,1,.14.32A.25.25,0,0,1,129.76,78Z" fill="#fff"/><path d="M58.66,86.39a.25.25,0,0,1-.14-.45c17.91-13-9.2-66.16-9.48-66.69a.26.26,0,0,1,.11-.34.25.25,0,0,1,.34.11A198.61,198.61,0,0,1,61.06,47.58c6.19,20.15,5.43,33.19-2.25,38.77A.26.26,0,0,1,58.66,86.39Z" fill="#fff"/><path d="M67.72,121l-.1,0a.26.26,0,0,1-.13-.33c6.84-15.88-9.08-34.38-9.24-34.57a.25.25,0,0,1,0-.35.26.26,0,0,1,.36,0c.16.19,16.29,18.92,9.32,35.1A.25.25,0,0,1,67.72,121Z" fill="#fff"/><path d="M89.49,89.55h0a.26.26,0,0,1-.22-.28,15.52,15.52,0,0,1,6-10.33.25.25,0,0,1,.35.06.26.26,0,0,1-.07.35,15,15,0,0,0-5.82,10A.25.25,0,0,1,89.49,89.55Z" fill="#fff"/><path d="M77.79,88.34a.26.26,0,0,1-.25-.24c-.52-8,8.57-20.28,9-20.79a.24.24,0,0,1,.35,0,.25.25,0,0,1,.05.35c-.1.12-9.37,12.59-8.86,20.46a.24.24,0,0,1-.24.26Z" fill="#fff"/><path d="M67.32,86.77a.24.24,0,0,1-.25-.24C66.91,76.44,75.8,54.19,75.89,54a.24.24,0,0,1,.32-.13.24.24,0,0,1,.14.32c-.09.22-8.94,22.38-8.78,32.37a.25.25,0,0,1-.25.25Z" fill="#fff"/><path d="M109.29,84a.2.2,0,0,1-.11,0c-4.46-2.3-9.76-.64-9.81-.62a.25.25,0,0,1-.31-.16.24.24,0,0,1,.16-.31c.22-.08,5.55-1.75,10.19.65a.25.25,0,0,1,.11.33A.27.27,0,0,1,109.29,84Z" fill="#fff"/><path d="M96.66,98h-.07c-3-.83-3.4-7.62-3.42-7.91a.25.25,0,0,1,.5,0c0,.07.4,6.72,3.06,7.46a.24.24,0,0,1,.17.3A.24.24,0,0,1,96.66,98Z" fill="#fff"/><path d="M87.93,104.75a.24.24,0,0,1-.16,0c-5.77-4.51-5.71-15.42-5.71-15.88a.25.25,0,0,1,.25-.25h0a.25.25,0,0,1,.25.25c0,.11,0,11.12,5.52,15.49a.24.24,0,0,1,0,.35A.23.23,0,0,1,87.93,104.75Z" fill="#fff"/><path d="M82.19,109.49a.31.31,0,0,1-.13,0c-5.1-3-7.46-8.73-8.54-13a37.59,37.59,0,0,1-1.14-8.6.24.24,0,0,1,.25-.24.25.25,0,0,1,.25.25A36.88,36.88,0,0,0,74,96.35c1.06,4.17,3.36,9.76,8.31,12.68a.25.25,0,0,1,.09.34A.25.25,0,0,1,82.19,109.49Z" fill="#fff"/><path d="M113.74,77a.2.2,0,0,1-.11,0c-9-4.5-20.34-1.29-20.46-1.25a.26.26,0,0,1-.31-.17.24.24,0,0,1,.17-.31c.12,0,11.63-3.31,20.82,1.28a.25.25,0,0,1-.11.48Z" fill="#fff"/><path d="M90.41,72.24a.25.25,0,0,1-.21-.11.24.24,0,0,1,.07-.34c.08-.06,8.46-5.74,8.77-13a.24.24,0,0,1,.26-.24.25.25,0,0,1,.24.26c-.32,7.5-8.64,13.14-9,13.37A.22.22,0,0,1,90.41,72.24Z" fill="#fff"/><path d="M94.21,75.26A.25.25,0,0,1,94,75a.24.24,0,0,1,.22-.27c.23,0,23.08-2.48,27.41-12.39a.26.26,0,0,1,.33-.13.25.25,0,0,1,.13.33c-1.87,4.28-7.13,7.72-15.63,10.22a77.59,77.59,0,0,1-12.19,2.47Z" fill="#fff"/><path d="M125.47,80.39a.25.25,0,0,1-.19-.09s-5.27-5.9-9.93-5.62a.26.26,0,0,1-.27-.24.24.24,0,0,1,.24-.26c4.92-.28,10.12,5.55,10.34,5.79a.25.25,0,0,1,0,.36A.23.23,0,0,1,125.47,80.39Z" fill="#fff"/><path d="M116.3,85a.23.23,0,0,1-.23-.17c-1-3.1-5-2.93-5.07-2.93a.25.25,0,1,1,0-.5s4.41-.19,5.56,3.27a.26.26,0,0,1-.16.32Z" fill="#fff"/><path d="M85.16,114.9a.23.23,0,0,1-.17-.07c-1.65-1.49-7.47-1.22-7.53-1.22a.24.24,0,0,1-.26-.24.25.25,0,0,1,.24-.26c.25,0,6.08-.28,7.89,1.35a.25.25,0,0,1,0,.36A.25.25,0,0,1,85.16,114.9Z" fill="#fff"/><path d="M85.67,149.76a.25.25,0,0,1-.25-.24l-.26-34.64c0-.36.14-8.76,3.63-11.08a.25.25,0,0,1,.27.41c-3.26,2.18-3.4,10.58-3.4,10.67l.26,34.63a.25.25,0,0,1-.25.25Z" fill="#fff"/><path d="M133.26,84.31a.27.27,0,0,1-.24-.17c0-.06-2-5.82-5.13-5a.25.25,0,1,1-.13-.48c2.55-.63,4.33,2.22,5.18,4,.19-5.7,5.79-9.95,5.85-10a.25.25,0,1,1,.3.4c-.06,0-6.4,4.87-5.58,11a.26.26,0,0,1-.19.28Z" fill="#fff"/><path d="M133.26,98.91a.25.25,0,0,1-.25-.25V84.06a.25.25,0,0,1,.5,0v14.6A.25.25,0,0,1,133.26,98.91Z" fill="#fff"/><path d="M65.28,96.68a.23.23,0,0,1-.19-.1c-5.75-7.5-35.21-13.64-35.51-13.71a.25.25,0,0,1,.1-.49c1.22.26,29.94,6.25,35.8,13.9a.24.24,0,0,1,0,.35A.24.24,0,0,1,65.28,96.68Z" fill="#fff"/><path d="M67.2,101a.26.26,0,0,1-.22-.13c-3-5.41-19.31-13.13-19.47-13.2a.25.25,0,0,1-.12-.34.25.25,0,0,1,.33-.11c.68.31,16.6,7.86,19.7,13.41a.26.26,0,0,1-.1.34A.27.27,0,0,1,67.2,101Z" fill="#fff"/><path d="M64.35,76.68h0a.25.25,0,0,1-.2-.29c1.38-7.56-2.3-21.8-10.65-41.18C47.14,20.54,40.33,8,40.26,7.87a.24.24,0,0,1,.1-.34.25.25,0,0,1,.34.1c.07.12,6.89,12.69,13.21,27.37C62.41,54.75,66,68.7,64.59,76.47A.25.25,0,0,1,64.35,76.68Z" fill="#fff"/><path d="M107,53.42a53.21,53.21,0,0,1-17.74-3.21,70.78,70.78,0,0,1-20-11.15.25.25,0,1,1,.32-.38A70.23,70.23,0,0,0,89.4,49.74c10.76,3.83,26.88,6.12,42.53-4.75a.25.25,0,0,1,.29.41A43.53,43.53,0,0,1,107,53.42Z" fill="#fff"/><path d="M142.89,70.76h-.08c-10.64-3.41-8.72-28.4-8.64-29.46a.26.26,0,0,1,.27-.23.25.25,0,0,1,.23.27c0,.25-2,25.66,8.3,28.94a.26.26,0,0,1,.16.32A.25.25,0,0,1,142.89,70.76Z" fill="#fff"/></g></g></g></g></svg>